<svg xmlns="http://www.w3.org/2000/svg" width="1em" height="1em" viewBox="0 0 512 512" fill="currentColor"><path d="M323.336 71.879c31.792-.567 66.126 8.55 89.516 31.078 2.143 2.105 2.143 2.105 4.66 4.004 17.513 14.351 31.425 41.388 34.113 63.64.549 6.137.22 12.192-.062 18.337-.591 14.975-.71 29.951-.741 44.937q-.009 3.81-.03 7.62c-.068 13.527.145 26.98 1.087 40.478l.232 3.357c.763 9.87 2.323 19.57 4.084 29.307 1.372 8.483 1.873 15.044-3.195 22.363-2.26 2.697-4.706 5.135-7.25 7.563l-2.049 2.001c-3.742 3.634-7.559 7.141-11.549 10.502-3.785 3.401-7.32 7.063-10.879 10.698-3.609 3.662-7.346 7.094-11.237 10.454-3.453 3.022-6.769 6.188-10.099 9.344l-4.46 4.204q-4.367 4.124-8.704 8.28l-3.96 3.767-1.815 1.758c-4.142 3.921-8.08 7.429-14.06 7.429-3.959-1.348-5.411-2.627-7.938-6-.742-3.764-.662-7.478-.615-11.304l-.017-3.461c-.012-3.775.012-7.55.038-11.325q.003-3.936 0-7.872.002-8.25.052-16.5c.037-6.35.046-12.7.039-19.05a4159 4159 0 0 1 .024-18.356q.01-3.9.009-7.797c.002-3.634.023-7.267.05-10.901l-.009-3.255c.072-6.29.49-11.182 5.116-15.9 5.22-3.739 10.634-6.613 16.438-9.341C391.896 266.49 391.896 266.49 399 256c.875-3.608 1.128-6.96 1.133-10.668l.004-3.205-.012-3.315.012-3.35-.004-3.192-.004-2.92c.026-2.371.026-2.371-1.129-4.35-4.69.543-8.702 1.463-13.078 3.223l-3.478 1.371-3.694 1.469c-41.458 16.101-67.578 14.34-107.878-2.695l-3.313-1.376-2.897-1.239c-2.98-.843-4.718-.607-7.662.247q-.112 6.03-.165 12.06a506 506 0 0 1-.061 4.097c-.037 1.971-.052 3.942-.067 5.913l-.048 3.587c.38 3.733 1.501 6.101 3.341 9.343l.875 2.25c1.594 2.48 3.37 2.686 6.125 3.75 25.691 11.825 25.691 11.825 30.08 21.344.941 2.717 1.176 4.728 1.187 7.59l.026 2.93-.002 3.18.02 3.378c.019 3.682.023 7.364.025 11.047l.02 7.677q.017 8.046.015 16.09c-.002 6.194.02 12.389.051 18.583.03 5.967.037 11.934.035 17.9q.004 3.804.027 7.608c.02 3.543.014 7.085.002 10.628l.034 3.18c-.038 4.41-.073 7.105-2.34 10.962-2.987 2.607-5.259 3.362-9.18 3.903-4.108-1.714-7.196-3.79-10.437-6.812l-2.598-2.403L271 401l-3.559-3.316a3030 3030 0 0 1-5.764-5.384 877 877 0 0 0-10.393-9.59c-5.618-5.096-10.999-10.367-16.3-15.788-2.133-2.137-4.349-4.132-6.636-6.102-4.896-4.244-9.568-8.711-14.186-13.253a324 324 0 0 0-2.976-2.873C199.836 333.865 199.836 333.865 199 326c.02-3.08.431-5.976 1-9l.684-4.227.35-2.03c3.245-19.05 4.264-38.014 4.055-57.317-.035-3.404-.055-6.808-.072-10.213q-.074-14.49-.209-28.981a3330 3330 0 0 1-.11-17.878 961 961 0 0 0-.06-6.735c-.364-29.357 8.335-55.691 28.975-77.17q1.497-1.527 3.006-3.044a142 142 0 0 0 3.65-3.893c18.598-19.978 50.419-31.548 77.208-33.422zM112.313 28.75c8.282 2.807 12.283 14.79 16.187 22.125l3.281 6.117 1.61 3.027a281 281 0 0 0 3.28 5.908l1.61 2.83 1.44 2.482c3.383 7.302 3.567 14.296 3.533 22.205l.01 3.438c.007 3.792.001 7.583-.005 11.375q.003 4.083.01 8.166c.01 6.62.007 13.239.002 19.858q-.008 8.069-.003 16.138v2.322l.003 4.67q.006 21.879-.012 43.758-.012 18.772.002 37.546a37649 37649 0 0 1 .006 50.579q-.003 8.06.006 16.123a7906 7906 0 0 1-.007 19.64q-.008 5.011 0 10.022c.005 3.619-.002 7.238-.012 10.858l.013 3.205-.015 2.94-.001 2.53c-.291 2.77-1.042 4.884-2.251 7.388-2.916 2.082-5.441 2.256-8.965 2.275l-2.983.029-3.204-.003-3.31.013q-3.464.008-6.927.002c-3.532-.003-7.062.02-10.593.045q-3.367.004-6.733.002l-3.198.028c-9.37-.059-9.37-.059-13.087-3.391-.964-2.892-1.129-4.718-1.137-7.724l-.015-2.962-.002-3.262-.013-3.46q-.016-4.76-.022-9.52-.01-5.133-.029-10.265-.034-12.402-.052-24.802l-.011-7.008a49335 49335 0 0 1-.071-56.152c-.013-13.523-.046-27.046-.088-40.569q-.063-20.835-.071-41.67c-.004-7.797-.015-15.593-.048-23.389q-.044-9.963-.028-19.927.01-5.079-.022-10.157c-.023-3.681-.015-7.361.001-11.042l-.042-3.201c.105-9.934 3.835-18.146 8.736-26.671l1.622-2.845 1.667-2.874 1.734-3.022q1.684-2.932 3.377-5.859 1.92-3.324 3.81-6.666c6.187-10.838 6.187-10.838 11.016-11.203M61.358 383.74l2.775-.022 3.052.007 3.208-.015c3.514-.014 7.027-.013 10.54-.01l7.302-.014q7.66-.01 15.32-.002c6.556.006 13.111-.01 19.667-.034 5.028-.015 10.055-.016 15.083-.013q3.626 0 7.253-.015c3.376-.013 6.751-.006 10.127.006l3.047-.023 2.783.02h2.42c2.592.47 3.478 1.307 5.065 3.375.388 2.312.388 2.312.398 5l.012 2.937-.035 3.063.035 3.062-.012 2.938-.01 2.687C169 409 169 409 167.986 410.794c-3.187 1.935-6.54 1.571-10.154 1.499l-2.408-.013a903 903 0 0 1-7.612-.093q-2.58-.022-5.162-.04-6.325-.052-12.65-.147l.013 2.479q.06 11.565.09 23.13.015 5.945.048 11.891.032 5.738.039 11.476.005 2.19.021 4.378c.015 2.045.017 4.089.016 6.133l.014 3.526c-.236 2.92-.621 4.573-2.241 6.987-4.568 2.284-10.86 1.275-15.875 1.312l-3.918.088-3.762.026-3.452.044c-3.751-.59-4.69-1.49-6.993-4.47-.481-3.025-.481-3.025-.454-6.604l-.002-1.983c.003-2.154.034-4.306.065-6.46q.012-2.244.018-4.49c.015-3.932.054-7.864.098-11.796.041-4.015.06-8.03.08-12.046Q93.87 423.811 94 412l-3.365.032c-4.11.036-8.222.059-12.333.078q-2.671.016-5.343.04c-2.557.025-5.113.036-7.67.045l-2.421.032c-1.958 0-3.914-.105-5.868-.227-2.609-2.609-2.257-3.745-2.266-7.375l-.007-3.234.023-3.391-.023-3.39.007-3.235.007-2.977c.477-4.422 2.707-4.649 6.617-4.659"/></svg>